<?xml version="1.0" encoding="UTF-8" standalone="no"?>
<svg
   width="24"
   height="24"
   viewBox="0 0 24 24"
   fill="none"
   stroke="#6366f1"
   stroke-width="2"
   stroke-linecap="round"
   stroke-linejoin="round"
   class="lucide lucide-message-square-icon lucide-message-square"
   version="1.1"
   id="svg1"
   sodipodi:docname="thumbsup.svg"
   inkscape:version="1.4.2 (f4327f4, 2025-05-13)"
   xmlns:inkscape="http://www.inkscape.org/namespaces/inkscape"
   xmlns:sodipodi="http://sodipodi.sourceforge.net/DTD/sodipodi-0.dtd"
   xmlns="http://www.w3.org/2000/svg"
   xmlns:svg="http://www.w3.org/2000/svg">
  <defs
     id="defs1" />
  <sodipodi:namedview
     id="namedview1"
     pagecolor="#ffffff"
     bordercolor="#000000"
     borderopacity="0.25"
     inkscape:showpageshadow="2"
     inkscape:pageopacity="0.0"
     inkscape:pagecheckerboard="0"
     inkscape:deskcolor="#d1d1d1"
     inkscape:zoom="77.541667"
     inkscape:cx="12"
     inkscape:cy="12"
     inkscape:window-width="3840"
     inkscape:window-height="2126"
     inkscape:window-x="3829"
     inkscape:window-y="-11"
     inkscape:window-maximized="1"
     inkscape:current-layer="svg1" />
  <path
     d="M22 17a2 2 0 0 1-2 2H6.828a2 2 0 0 0-1.414.586l-2.202 2.202A.71.71 0 0 1 2 21.286V5a2 2 0 0 1 2-2h16a2 2 0 0 1 2 2z"
     id="path1" />
  <path
     d="M 13.373895,7.8707208 12.88154,9.8992235 h 2.870429 a 0.98471004,0.98471004 0 0 1 0.945322,1.2604285 l -1.147188,3.938841 a 0.98471004,0.98471004 0 0 1 -0.945321,0.708991 H 7.9579893 a 0.98471004,0.98471004 0 0 1 -0.9847101,-0.98471 v -3.93884 A 0.98471004,0.98471004 0 0 1 7.9579893,9.8992235 H 9.3168891 A 0.98471004,0.98471004 0 0 0 10.198205,9.3527094 l 1.698624,-3.392326 a 1.5410712,1.5410712 0 0 1 1.477066,1.9103374 z"
     id="path1-8"
     style="stroke-width:0.98471" />
  <path
     d="M 9.4350543,9.8992235 V 15.807484"
     id="path2"
     style="stroke-width:0.98471" />
</svg>
