<svg
   width="24"
   height="24"
   viewBox="0 0 24 24"
   fill="none"
   stroke="currentColor"
   stroke-width="2"
   stroke-linecap="round"
   stroke-linejoin="round"
   xmlns="http://www.w3.org/2000/svg">
  <path
     d="M22 17a2 2 0 0 1-2 2H6.828a2 2 0 0 0-1.414.586l-2.202 2.202A.71.71 0 0 1 2 21.286V5a2 2 0 0 1 2-2h16a2 2 0 0 1 2 2z" />
  <path
     d="M 13.373895,7.8707208 12.88154,9.8992235 h 2.870429 a 0.98471004,0.98471004 0 0 1 0.945322,1.2604285 l -1.147188,3.938841 a 0.98471004,0.98471004 0 0 1 -0.945321,0.708991 H 7.9579893 a 0.98471004,0.98471004 0 0 1 -0.9847101,-0.98471 v -3.93884 A 0.98471004,0.98471004 0 0 1 7.9579893,9.8992235 H 9.3168891 A 0.98471004,0.98471004 0 0 0 10.198205,9.3527094 l 1.698624,-3.392326 a 1.5410712,1.5410712 0 0 1 1.477066,1.9103374 z"
     style="stroke-width:0.98471" />
  <path
     d="M 9.4350543,9.8992235 V 15.807484"
     style="stroke-width:0.98471" />
</svg>
